<svg xmlns="http://www.w3.org/2000/svg" xmlns:xlink="http://www.w3.org/1999/xlink" width="1920" height="1080" viewBox="0 0 1920 1080">
  <defs>
    <style>
      .cls-1 {
        clip-path: url(#clip-Dashboard_3);
      }

      .cls-2 {
        fill: #92dce5;
      }

      .cls-3 {
        fill: none;
      }

      .cls-4, .cls-5 {
        stroke: none;
      }

      .cls-5 {
        fill: #2b2d42;
      }

      .cls-6 {
        fill: rgba(255,255,255,0);
      }
    </style>
    <clipPath id="clip-Dashboard_3">
      <rect width="1920" height="1080"/>
    </clipPath>
  </defs>
  <g id="Dashboard_3" data-name="Dashboard – 3" class="cls-1">
    <rect class="cls-6" width="1920" height="1080"/>
    <g id="Group_242" data-name="Group 242" transform="translate(1278.221 -251.412)">
      <path id="Path_812" data-name="Path 812" class="cls-2" d="M759.831.432H61.642S0-15.416,0,144.834,263.273,304.113,350.676,361.447,434.5,596.33,605.5,596.33,759.831,497.8,759.831,497.8Z" transform="translate(139.763 122.495)"/>
      <g id="Path_813" data-name="Path 813" class="cls-3" transform="translate(0 0)">
        <path class="cls-4" d="M1067.008,0,61.642,13.4S0-2.449,0,157.8,263.273,317.08,350.676,374.414,434.5,609.3,605.5,609.3,736.134,529.86,798.19,456.231s183.4-88.624,183.4-212.966S1067.008,0,1067.008,0Z"/>
        <path class="cls-5" d="M 1048.19775390625 10.2515869140625 L 61.77484130859375 23.3985595703125 L 60.43695068359375 23.35809326171875 L 59.366943359375 23.13641357421875 C 59.35882568359375 23.13470458984375 58.53509521484375 22.96728515625 57.15399169921875 22.96728515625 C 49.27984619140625 22.96728515625 10 29.46783447265625 10 157.8008422851562 C 10 260.2062683105469 128.3965454101562 292.6589660644531 232.8558349609375 321.2914123535156 C 281.5031127929688 334.6258239746094 327.4525146484375 347.2205505371094 356.1608276367188 366.0525512695312 C 390.2391357421875 388.4071044921875 410.4445190429688 426.1988220214844 431.8362426757812 466.2094116210938 C 466.8185424804688 531.6392822265625 502.9918212890625 599.2968139648438 605.4962158203125 599.2968139648438 C 718.4857177734375 599.2968139648438 732.655517578125 565.1845703125 752.26708984375 517.9713745117188 C 761.00927734375 496.9259643554688 770.917724609375 473.0723876953125 790.5430908203125 449.7868347167969 C 812.6192626953125 423.5936889648438 841.5835571289062 404.6928100585938 869.59423828125 386.4141235351562 C 922.0441284179688 352.1875610351562 971.5850830078125 319.8591003417969 971.5850830078125 243.2656860351562 C 971.5850830078125 142.7243347167969 1024.808837890625 47.32000732421875 1048.19775390625 10.2515869140625 M 1067.007934570312 0 C 1067.007934570312 0 981.5850830078125 118.9234008789062 981.5850830078125 243.2656860351562 C 981.5850830078125 367.6079711914062 860.2449951171875 382.6029663085938 798.1895751953125 456.2313842773438 C 736.1341552734375 529.8598022460938 776.4962158203125 609.2968139648438 605.4962158203125 609.2968139648438 C 434.49609375 609.2968139648438 438.078125 431.7479858398438 350.6758422851562 374.4141235351562 C 263.2735595703125 317.0801086425781 0 318.0508422851562 0 157.8008422851562 C 0 -2.449462890625 61.641357421875 13.3994140625 61.64154052734375 13.3994140625 L 1067.007934570312 0 Z"/>
      </g>
    </g>
  </g>
</svg>
